PathFileType	4	(X/Y/Z)	Run_300 01
DataRate	CameraRate	NumFrames	NumMarkers	Units	OrigDataRate	OrigDataStartFrame	OrigNumFrames
120	120	7	42	mm	120	145	128
Frame#	Time	LASI			RASI			LPSI			RPSI			RTH1			RTH3			LTH1			LTH2			LTH3			RTB1			RTB2			RTB3			LTB1			LTB2			LTB3			RCAL			RTOE			RMT5			LCAL			LTOE			LMT5			LACR			RACR			CLAV			C7			RUA1			RUA2			RUA3			RLEL			RMEL			LUA1			LUA2			LUA3			LLEL			LMEL			RFAsuperior			RFAradius			RFAulna			LFAsuperior			LFAradius			LFAulna			RTH2			
		X1	Y1	Z1	X2	Y2	Z2	X3	Y3	Z3	X4	Y4	Z4	X5	Y5	Z5	X6	Y6	Z6	X7	Y7	Z7	X8	Y8	Z8	X9	Y9	Z9	X10	Y10	Z10	X11	Y11	Z11	X12	Y12	Z12	X13	Y13	Z13	X14	Y14	Z14	X15	Y15	Z15	X16	Y16	Z16	X17	Y17	Z17	X18	Y18	Z18	X19	Y19	Z19	X20	Y20	Z20	X21	Y21	Z21	X22	Y22	Z22	X23	Y23	Z23	X24	Y24	Z24	X25	Y25	Z25	X26	Y26	Z26	X27	Y27	Z27	X28	Y28	Z28	X29	Y29	Z29	X30	Y30	Z30	X31	Y31	Z31	X32	Y32	Z32	X33	Y33	Z33	X34	Y34	Z34	X35	Y35	Z35	X36	Y36	Z36	X37	Y37	Z37	X38	Y38	Z38	X39	Y39	Z39	X40	Y40	Z40	X41	Y41	Z41	X42	Y42	Z42	

131	1.233333	1094.133849	1045.679727	-430.354434	1099.211551	1032.395561	-202.567028	931.0191150000001	1080.984297	-365.808694	933.818546	1081.734586	-266.527902	1021.077548	871.157305	-155.019714	964.033242	644.9600820000001	-213.273126	1064.284359	878.767199	-502.929106	1173.402965	804.583149	-491.657467	1144.933597	666.226256	-464.138535	846.63665	444.105133	-276.426935	775.734316	465.236095	-210.694907	675.748451	381.947231	-262.782262	1281.119025	464.82126	-406.001962	1257.541231	363.02414	-451.949604	1297.208889	272.164043	-385.556507	509.952916	440.303352	-260.898944	549.338689	240.233791	-312.680996	513.686989	228.105739	-210.985046	1196.065833	142.150932	-366.82333	1400.821129	132.334614	-325.957685	1391.542744	78.104066	-421.839731	1039.580181	1526.735649	-503.610139	1114.276161	1518.596696	-153.114258	1148.685486	1472.933942	-322.388347	1035.329178	1554.084317	-329.875778	1091.966444	1441.578025	-101.290004	1091.340496	1351.900538	-107.646944	1005.490849	1362.363411	-79.426847	978.810737	1249.738314	-47.154999	941.621534	1250.684633	-111.725326	972.550694	1493.596982	-542.668234	914.778627	1464.462621	-488.151902	910.505074	1410.471764	-556.7465580000001	793.544943	1357.573529	-553.153529	791.3023459999999	1357.788238	-478.447499	1072.179461	1225.758715	-70.317922	1207.310364	1157.506126	-168.372213	1176.427091	1098.791981	-154.792177	861.86608	1314.881446	-571.8192780000001	1027.805491	1217.670206	-533.334953	985.8977149999999	1165.671584	-545.713126	1047.50846	718.075937	-211.538282	
132	1.241667	1094.02578	1042.556121	-430.348645	1100.245677	1028.799288	-202.739691	930.304713	1075.716873	-364.678044	934.089829	1076.00395	-265.456529	1026.888804	865.812069	-155.477429	972.754934	638.515341	-213.998215	1065.053574	875.499535	-504.825651	1170.696718	797.572313	-490.958405	1141.73034	660.78243	-463.247023	855.223394	441.86794	-275.295129	784.441811	468.010524	-211.609595	681.443299	388.470967	-262.383431	1276.803195	459.626265	-405.156788	1251.447325	357.117841	-449.990726	1291.452962	266.155965	-383.502143	518.48542	455.166485	-262.773551	549.181077	252.162511	-309.315948	512.886477	244.313741	-207.318448	1189.287809	136.9482	-364.096814	1393.615238	123.885802	-322.08227	1384.10107	69.519695	-417.718919	1041.644124	1520.701067	-505.663885	1114.730978	1514.054035	-154.211323	1149.16663	1467.571495	-323.280824	1036.274996	1549.794618	-331.707615	1091.411755	1437.551108	-102.214292	1089.278243	1347.285089	-109.06049	1003.939401	1359.630143	-80.35702999999999	974.936889	1247.75426	-47.816003	938.729648	1248.950952	-112.620287	974.902552	1486.517275	-545.3868199999999	916.624099	1457.849133	-490.969502	913.2746990000001	1403.028592	-559.091377	796.651763	1349.358208	-555.9048739999999	793.744855	1350.0286	-481.326008	1067.469112	1220.741075	-69.88615299999999	1201.532577	1145.416383	-164.822567	1168.017793	1088.283689	-150.98833	865.678558	1307.611341	-573.8447629999999	1032.546395	1213.203019	-533.4065430000001	991.7838829999999	1160.314451	-546.205721	1054.257468	713.673235	-210.949517	
133	1.25	1093.954269	1038.770709	-430.677998	1101.087634	1024.52841	-202.251055	929.600913	1070.057707	-363.523932	934.397975	1069.575084	-264.449396	1031.904655	860.340182	-155.595634	981.231318	631.59948	-214.511414	1065.227922	871.389215	-505.95661	1169.231466	791.836336	-490.338796	1139.820132	655.872147	-462.905846	864.938433	439.163623	-274.100564	794.5397400000001	470.038762	-212.121524	688.790282	394.406399	-261.895493	1271.815415	453.391263	-404.418573	1244.391042	350.168909	-448.144646	1283.879563	258.846575	-381.596812	529.065648	468.987305	-265.142025	550.836729	263.405624	-305.637845	514.234799	260.256793	-203.485774	1179.426808	131.848615	-361.605924	1382.788884	113.416361	-318.476168	1373.043329	59.058769	-414.161432	1043.647169	1513.860629	-507.605221	1114.942027	1508.681748	-155.306442	1149.582909	1461.413373	-324.072077	1037.133483	1544.720342	-333.432558	1090.520451	1432.719133	-103.010045	1086.739376	1341.836288	-110.459738	1002.049218	1356.080815	-81.22201800000001	970.659894	1245.151027	-48.480743	935.469194	1246.616041	-113.493301	977.393952	1478.366356	-548.175476	918.361408	1450.198744	-494.182203	916.284661	1394.375756	-561.624464	800.051994	1339.870687	-559.092635	796.302063	1341.012991	-484.574752	1062.214992	1215.014587	-69.502883	1194.816542	1132.302218	-160.699464	1158.50407	1076.931589	-146.867728	869.79571	1299.015003	-576.143249	1037.624829	1207.722279	-533.362102	998.031105	1154.012326	-546.416386	1060.533525	708.676682	-209.371336	
134	1.258333	1093.914178	1034.111232	-431.343929	1101.760269	1019.472696	-201.051224	929.104591	1063.935231	-362.484579	934.589546	1062.539416	-263.606057	1036.047998	854.534279	-155.342542	989.813764	624.217396	-214.798548	1064.870708	866.484338	-505.818876	1169.148601	787.537223	-489.926561	1138.838842	651.139718	-462.812161	875.705157	436.001758	-272.740173	805.919204	471.340857	-212.228722	697.590925	399.735873	-261.203983	1266.201168	445.752069	-403.340437	1236.601236	342.116687	-446.21816	1273.886152	250.143078	-379.748096	541.247063	481.573391	-267.905265	554.57356	273.949481	-301.700349	517.854337	275.679398	-199.603786	1165.629842	126.585028	-359.295546	1367.889982	101.803765	-315.494789	1358.163255	48.511025	-411.555656	1045.60346	1506.269043	-509.482927	1114.869463	1502.507974	-156.360443	1149.938771	1454.522671	-324.756209	1037.864487	1538.863004	-335.057034	1089.289262	1427.081851	-103.69854	1083.767614	1335.711515	-111.741921	999.765231	1351.746406	-82.09739399999999	965.9834070000001	1241.924461	-49.192132	931.715254	1243.550277	-114.518562	979.996404	1469.226495	-551.022367	919.943312	1441.559345	-497.821326	919.52119	1384.556765	-564.286077	803.754522	1329.131565	-562.691467	798.994352	1330.77369	-488.168023	1056.521354	1208.575327	-69.055621	1187.177485	1118.298011	-156.107127	1147.840393	1064.859193	-142.532753	874.2276419999999	1289.139705	-578.709554	1043.018245	1201.291358	-533.314779	1004.546445	1146.866603	-546.2262909999999	1066.685808	703.072223	-207.148368	
135	1.266667	1093.848402	1028.419982	-432.175323	1102.271274	1013.515859	-199.543221	928.844047	1057.26249	-361.701484	934.57481	1055.001951	-262.996428	1039.255645	848.192558	-154.807688	998.784781	616.382841	-214.851588	1064.384725	860.804301	-504.273256	1169.872356	784.205346	-489.346302	1138.371533	646.223896	-462.553915	887.437055	432.438136	-270.999648	818.4456730000001	471.959747	-211.956929	707.706263	404.441515	-260.263542	1260.031561	436.542944	-401.77807	1227.484272	333.096512	-443.941886	1260.386804	240.217847	-377.541261	554.636122	492.833668	-270.876116	560.589652	283.75825	-297.663839	523.930429	290.272453	-195.787482	1146.851926	120.503692	-356.863151	1348.477139	90.811134	-313.238751	1339.282457	40.185364	-409.885313	1047.530164	1497.976684	-511.311633	1114.492859	1495.601557	-157.280981	1150.23194	1446.973571	-325.333807	1038.419747	1532.229721	-336.640683	1087.715959	1420.658124	-104.317533	1080.426826	1329.084528	-112.80961	997.04529	1346.688325	-83.051514	960.912503	1238.07787	-49.999457	927.408038	1239.700344	-115.799365	982.685146	1459.200382	-553.895009	921.386203	1431.978487	-501.854024	922.988773	1373.644834	-567.044328	807.7953189999999	1317.200834	-566.622938	801.881811	1319.385974	-492.065196	1050.407955	1201.398458	-68.421812	1178.599677	1103.502121	-151.205876	1136.051278	1052.188574	-138.074761	879.013557	1278.081254	-581.533416	1048.700645	1193.959893	-533.364657	1011.294429	1138.898172	-545.66529	1073.040791	696.897143	-204.531759	
136	1.275	1093.65961	1021.739785	-432.945629	1102.571025	1006.66562	-198.368191	928.620388	1049.944916	-361.266881	934.318492	1047.034252	-262.659461	1041.569709	841.136838	-154.204557	1008.301829	608.125242	-214.646205	1064.161399	854.281197	-501.730751	1170.624018	780.964785	-487.945691	1138.290977	640.90817	-462.042974	900.061136	428.60094	-268.757157	831.985471	471.966845	-211.299617	719.078046	408.505672	-259.106863	1253.226397	425.902974	-399.751889	1216.043228	323.563211	-441.100086	1242.73858	229.66569	-374.390213	568.987061	502.74764	-273.802065	568.961536	292.755092	-293.740403	532.630673	303.687258	-192.143337	1122.971717	113.214253	-353.947607	1324.871744	82.366337	-311.471224	1316.690999	35.739245	-408.919259	1049.444276	1489.076969	-513.099702	1113.785648	1488.086363	-157.976722	1150.474438	1438.861078	-325.801295	1038.751935	1524.867483	-338.263861	1085.778042	1413.485187	-104.899428	1076.747193	1322.072475	-113.639874	993.859066	1340.981614	-84.126442	955.468377	1233.636552	-50.957531	922.635852	1235.194947	-117.272045	985.439996	1448.378687	-556.745568	922.769548	1421.466032	-506.164711	926.707037	1361.71563	-569.888617	812.234864	1304.193488	-570.788592	805.058004	1306.940924	-496.227888	1043.804145	1193.449757	-67.50914899999999	1169.022548	1088.008324	-146.153892	1123.219786	1039.04233	-133.544654	884.205293	1265.972412	-584.595989	1054.649315	1185.755539	-533.4962	1018.318778	1130.05089	-544.921956	1079.795893	690.263886	-201.691144	
137	1.283333	1093.248635	1014.342097	-433.508172	1102.554878	999.1233140000001	-197.967712	928.130054	1041.909236	-361.208388	933.7583969999999	1038.658816	-262.603393	1043.193057	833.261828	-153.813683	1018.430261	599.522739	-214.139201	1064.232563	846.8153589999999	-499.013089	1171.030131	776.894438	-485.408707	1138.767605	635.063943	-461.637143	913.5454120000001	424.669021	-266.078412	846.435395	471.46297	-210.235687	731.706147	411.896784	-257.817483	1245.522824	414.35219	-397.167513	1201.865538	314.28417	-437.655946	1221.686225	219.468765	-370.004075	584.223762	511.29601	-276.420224	579.6049400000001	300.804219	-290.11435	543.97606	315.57229	-188.750495	1095.494259	105.294247	-350.38011	1298.572545	77.406403	-309.716121	1291.432335	35.259565	-408.601461	1051.353169	1479.748436	-514.891545	1112.692404	1480.143418	-158.404767	1150.706816	1430.322741	-326.142331	1038.842534	1516.921757	-339.969369	1083.427522	1405.632647	-105.454991	1072.703271	1314.714545	-114.327339	990.191002	1334.702034	-85.333257	949.694237	1228.662779	-52.118183	917.636108	1230.287784	-118.776499	988.240724	1436.818958	-559.547055	924.191829	1410.00233	-510.591698	930.707274	1348.822777	-572.793645	817.1540639999999	1290.258555	-575.104075	808.643724	1293.529097	-500.620041	1036.597976	1184.702706	-66.289008	1158.378262	1071.952519	-141.040634	1109.457879	1025.53498	-128.96054	889.843307	1252.943243	-587.853027	1060.869917	1176.705452	-533.586741	1025.705701	1120.279212	-544.211311	1087.009376	683.388615	-198.75461	
